<svg width="34" height="34" viewBox="0 0 34 34" fill="none" xmlns="http://www.w3.org/2000/svg">
<rect width="34" height="34" rx="17" fill="#F2C231"/>
<path fill-rule="evenodd" clip-rule="evenodd" d="M25.3 10.8769H21.8286V21.4692H20.6715V21.4692H11.9929L9.10005 14.4077H20.6715V9.70001H25.3V10.8769ZM20.6715 25C20.0324 25 19.5143 24.4731 19.5143 23.8231C19.5143 23.1731 20.0324 22.6462 20.6715 22.6462C21.3105 22.6462 21.8286 23.1731 21.8286 23.8231C21.8286 24.4731 21.3105 25 20.6715 25ZM12.5715 23.8231C12.5715 24.4731 13.0895 25 13.7286 25C14.3677 25 14.8857 24.4731 14.8857 23.8231C14.8857 23.1731 14.3677 22.6462 13.7286 22.6462C13.0895 22.6462 12.5715 23.1731 12.5715 23.8231Z" fill="#333333"/>
</svg>
